<svg
      width="24"
      height="24"
      viewBox="0 0 24 24"
      fill="none"
      xmlns="http://www.w3.org/2000/svg"
    >
      <path
        d="M12 19C12.21 19 12.404 18.901 12.793 18.703L15.923 17.113C17.308 16.409 18 16.057 18 15.5V8.5M12 19C11.79 19 11.596 18.901 11.207 18.703L8.077 17.113C6.692 16.409 6 16.057 6 15.5V8.5M12 19V12M18 8.5C18 7.943 17.308 7.59 15.923 6.887L12.793 5.297C12.404 5.099 12.21 5 12 5C11.79 5 11.596 5.099 11.207 5.297L8.077 6.887C6.692 7.591 6 7.943 6 8.5M18 8.5C18 9.057 17.308 9.41 15.923 10.113L12.793 11.703C12.404 11.901 12.209 12 12 12M6 8.5C6 9.057 6.692 9.41 8.077 10.113L11.207 11.703C11.596 11.901 11.791 12 12 12"
        stroke="white"
        stroke-width="1.5"
        stroke-linecap="round"
        stroke-linejoin="round"
      />
      <path
        d="M13.19 21.576L17.884 19.304C19.961 18.3 21 17.796 21 17V7C21 6.204 19.961 5.701 17.884 4.696L13.19 2.424C12.606 2.141 12.314 2 12 2C11.686 2 11.394 2.141 10.81 2.424L6.116 4.696C4.039 5.7 3 6.204 3 7V17C3 17.796 4.039 18.299 6.116 19.304L10.81 21.576C11.394 21.859 11.686 22 12 22C12.314 22 12.606 21.859 13.19 21.576Z"
        stroke="white"
        stroke-width="1.5"
        stroke-linecap="round"
        stroke-linejoin="round"
      />
    </svg>